# xmcd CD database file
# Copyright (C) 1997 Ti Kan
#
# Track frame offsets:
#  150
#  12175
#  23700
#  38942
#  52225
#  65045
#  78592
#  96835
#  109260
#  121470
#  133410
#  144155
#  157777
#  170112
#  181440
#  193795
#
# Disc length: 2770 seconds
#
# Revision: 1
# Processed by: cddbd v1.4b41PL1 Copyright (c) Steve Scherf et al.
# Submitted via: CDWizzard Release:4.32
#
DISCID=e70ad010
DTITLE=Little Milton - Greatest Hits:  The Chess 50th Anniversary Collect
DTITLE=ion
DYEAR=1900
DGENRE=
TTITLE0=We're Gonna Make It
TTITLE1=So Mean To Me
TTITLE2=Blind Man
TTITLE3=Who's Cheating Who?
TTITLE4=We Got The Winning Hand
TTITLE5=Man Loves Two (Man's Temptation
TTITLE6=I Feel So Bad
TTITLE7=More And More
TTITLE8=Let Me Down Easy
TTITLE9=Grits Ain't Groceries
TTITLE10=Just A Little Bit
TTITLE11=Let's Get Together
TTITLE12=Poor Man's Song
TTITLE13=I Play Dirty
TTITLE14=Baby, I Love You
TTITLE15=If Walls Could Talk
EXTD=
EXTT0=
EXTT1=
EXTT2=
EXTT3=
EXTT4=
EXTT5=
EXTT6=
EXTT7=
EXTT8=
EXTT9=
EXTT10=
EXTT11=
EXTT12=
EXTT13=
EXTT14=
EXTT15=
PLAYORDER=
